<mxfile host="app.diagrams.net" modified="2021-10-09T06:38:28.300Z" agent="5.0 (Windows NT 10.0; Win64; x64) AppleWebKit/537.36 (KHTML, like Gecko) Chrome/90.0.4430.93 Safari/537.36" etag="6yW8AYqdB_20YtkjxbzM" version="15.3.8" type="github">
  <diagram id="NwEF2wVTVFCRHf_Oc7Td" name="Page-1">
    <mxGraphModel dx="1999" dy="1106" grid="1" gridSize="10" guides="1" tooltips="1" connect="1" arrows="1" fold="1" page="1" pageScale="1" pageWidth="827" pageHeight="1169" math="0" shadow="0">
      <root>
        <mxCell id="0" />
        <mxCell id="1" parent="0" />
        <mxCell id="U1izw9JYFy1tTWma2Y6g-1" value="btf_ext_header" style="text;whiteSpace=wrap;html=1;" vertex="1" parent="1">
          <mxGeometry x="370" y="440" width="110" height="30" as="geometry" />
        </mxCell>
        <mxCell id="U1izw9JYFy1tTWma2Y6g-2" value="bpf.ext&amp;nbsp;" style="rounded=0;whiteSpace=wrap;html=1;" vertex="1" parent="1">
          <mxGeometry x="550" y="270" width="120" height="60" as="geometry" />
        </mxCell>
        <mxCell id="U1izw9JYFy1tTWma2Y6g-3" value="btf_ext_header" style="rounded=0;whiteSpace=wrap;html=1;" vertex="1" parent="1">
          <mxGeometry x="550" y="330" width="120" height="60" as="geometry" />
        </mxCell>
        <mxCell id="U1izw9JYFy1tTWma2Y6g-4" value="record_size &lt;br&gt;u32" style="whiteSpace=wrap;html=1;" vertex="1" parent="1">
          <mxGeometry x="550" y="390" width="120" height="60" as="geometry" />
        </mxCell>
        <mxCell id="U1izw9JYFy1tTWma2Y6g-5" value="btf_ext_info_sec&lt;br&gt;num_records" style="whiteSpace=wrap;html=1;" vertex="1" parent="1">
          <mxGeometry x="550" y="450" width="120" height="60" as="geometry" />
        </mxCell>
        <mxCell id="U1izw9JYFy1tTWma2Y6g-6" value="record" style="whiteSpace=wrap;html=1;" vertex="1" parent="1">
          <mxGeometry x="550" y="510" width="120" height="60" as="geometry" />
        </mxCell>
        <mxCell id="U1izw9JYFy1tTWma2Y6g-7" value="record" style="whiteSpace=wrap;html=1;" vertex="1" parent="1">
          <mxGeometry x="550" y="570" width="120" height="60" as="geometry" />
        </mxCell>
      </root>
    </mxGraphModel>
  </diagram>
</mxfile>
